<?xml version="1.0" encoding="UTF-8" standalone="no"?>
<!-- Created with Inkscape (http://www.inkscape.org/) -->

<svg
   xmlns:dc="http://purl.org/dc/elements/1.1/"
   xmlns:cc="http://creativecommons.org/ns#"
   xmlns:rdf="http://www.w3.org/1999/02/22-rdf-syntax-ns#"
   xmlns:svg="http://www.w3.org/2000/svg"
   xmlns="http://www.w3.org/2000/svg"
   xmlns:sodipodi="http://sodipodi.sourceforge.net/DTD/sodipodi-0.dtd"
   xmlns:inkscape="http://www.inkscape.org/namespaces/inkscape"
   width="317.30136mm"
   height="41.74131mm"
   viewBox="0 0 317.30136 41.741304"
   version="1.1"
   id="svg8"
   inkscape:version="0.92.3 (2405546, 2018-03-11)"
   sodipodi:docname="header.svg">
  <defs
     id="defs2" />
  <sodipodi:namedview
     id="base"
     pagecolor="#ffffff"
     bordercolor="#666666"
     borderopacity="1.0"
     inkscape:pageopacity="0.0"
     inkscape:pageshadow="2"
     inkscape:zoom="0.98994949"
     inkscape:cx="530.55601"
     inkscape:cy="317.49456"
     inkscape:document-units="mm"
     inkscape:current-layer="layer1"
     showgrid="false"
     fit-margin-top="10"
     fit-margin-left="100"
     fit-margin-right="100"
     fit-margin-bottom="10"
     units="mm"
     inkscape:window-width="1920"
     inkscape:window-height="1052"
     inkscape:window-x="0"
     inkscape:window-y="19"
     inkscape:window-maximized="1" />
  <metadata
     id="metadata5">
    <rdf:RDF>
      <cc:Work
         rdf:about="">
        <dc:format>image/svg+xml</dc:format>
        <dc:type
           rdf:resource="http://purl.org/dc/dcmitype/StillImage" />
        <dc:title></dc:title>
      </cc:Work>
    </rdf:RDF>
  </metadata>
  <g
     inkscape:label="Vrstva 1"
     inkscape:groupmode="layer"
     id="layer1"
     transform="translate(85.376087,-94.914525)">
    <g
       aria-label="IT INSPIRATIVNÃ"
       transform="scale(0.26458333)"
       style="font-style:normal;font-weight:normal;font-size:40px;line-height:1.25;font-family:sans-serif;letter-spacing:0px;word-spacing:0px;fill:#000000;fill-opacity:1;stroke:none"
       id="flowRoot815">
      <path
         d="m 55.271484,477.94922 v -67.21875 h 10.546875 v 67.21875 z"
         style="font-style:normal;font-variant:normal;font-weight:normal;font-stretch:normal;font-size:96px;font-family:'Bebas Neue';-inkscape-font-specification:'Bebas Neue'"
         id="path842" />
      <path
         d="m 70.365234,420.33984 v -9.60937 h 32.671876 v 9.60937 H 91.974609 v 57.60938 H 81.427734 v -57.60938 z"
         style="font-style:normal;font-variant:normal;font-weight:normal;font-stretch:normal;font-size:96px;font-family:'Bebas Neue';-inkscape-font-specification:'Bebas Neue'"
         id="path844" />
      <path
         d="m 122.39648,477.94922 v -67.21875 h 10.54688 v 67.21875 z"
         style="font-style:normal;font-variant:normal;font-weight:normal;font-stretch:normal;font-size:96px;font-family:'Bebas Neue';-inkscape-font-specification:'Bebas Neue'"
         id="path846" />
      <path
         d="m 140.49023,477.94922 v -67.21875 h 13.21875 l 10.875,40.26562 v -40.26562 h 9.42188 v 67.21875 h -10.875 l -13.125,-48.65625 v 48.65625 z"
         style="font-style:normal;font-variant:normal;font-weight:normal;font-stretch:normal;font-size:96px;font-family:'Bebas Neue';-inkscape-font-specification:'Bebas Neue'"
         id="path848" />
      <path
         d="m 180.00586,461.82422 v -4.125 h 9.98437 v 4.78125 q 0,6.5625 5.48438,6.5625 5.48437,0 5.48437,-6.5625 0,-2.8125 -1.17187,-5.29688 -1.125,-2.48437 -2.95313,-4.45312 -1.78125,-2.01563 -3.98437,-3.98438 -2.20313,-2.01562 -4.45313,-4.17187 -2.20312,-2.20313 -4.03125,-4.64063 -1.78125,-2.4375 -2.95312,-5.8125 -1.125,-3.375 -1.125,-7.26562 0,-8.10938 3.9375,-12.46875 3.98437,-4.40625 11.625,-4.40625 7.64062,0 11.57812,4.40625 3.98438,4.35937 3.98438,12.46875 v 2.15625 h -9.98438 v -2.8125 q 0,-6.60938 -5.29687,-6.60938 -2.625,0 -3.9375,1.59375 -1.3125,1.54688 -1.3125,5.01563 0,2.8125 1.125,5.29687 1.17187,2.48438 2.95312,4.5 1.82813,1.96875 4.03125,3.98438 2.20313,1.96875 4.40625,4.17187 2.20313,2.15625 3.98438,4.59375 1.82812,2.4375 2.95312,5.8125 1.17188,3.375 1.17188,7.26563 0,8.10937 -4.03125,12.51562 -4.03125,4.35938 -11.71875,4.35938 -7.6875,0 -11.71875,-4.35938 -4.03125,-4.40625 -4.03125,-12.51562 z"
         style="font-style:normal;font-variant:normal;font-weight:normal;font-stretch:normal;font-size:96px;font-family:'Bebas Neue';-inkscape-font-specification:'Bebas Neue'"
         id="path850" />
      <path
         d="m 217.45898,477.94922 v -67.21875 h 15.5625 q 7.82813,0 11.76563,4.26562 3.98437,4.26563 3.98437,12.375 v 8.71875 q 0,8.10938 -3.98437,12.375 -3.9375,4.21875 -11.76563,4.21875 h -5.01562 v 25.26563 z m 10.54688,-34.82813 h 5.01562 q 2.625,0 3.89063,-1.45312 1.26562,-1.45313 1.26562,-4.92188 v -10.07812 q 0,-3.46875 -1.26562,-4.875 -1.26563,-1.45313 -3.89063,-1.45313 h -5.01562 z"
         style="font-style:normal;font-variant:normal;font-weight:normal;font-stretch:normal;font-size:96px;font-family:'Bebas Neue';-inkscape-font-specification:'Bebas Neue'"
         id="path852" />
      <path
         d="m 254.20898,477.94922 v -67.21875 h 10.54688 v 67.21875 z"
         style="font-style:normal;font-variant:normal;font-weight:normal;font-stretch:normal;font-size:96px;font-family:'Bebas Neue';-inkscape-font-specification:'Bebas Neue'"
         id="path854" />
      <path
         d="m 272.39648,477.94922 v -67.21875 h 15.9375 q 8.10938,0 11.85938,3.79687 3.79687,3.79688 3.79687,11.67188 v 5.29687 q 0,10.35938 -6.9375,13.64063 3.79688,1.59375 5.39063,5.15625 1.64062,3.5625 1.64062,9.14062 v 10.35938 q 0,5.57812 1.125,8.15625 h -10.73437 q -0.375,-1.17188 -0.51563,-1.73438 -0.14062,-0.60937 -0.32812,-2.25 -0.14063,-1.6875 -0.14063,-4.26562 v -10.54688 q 0,-4.64062 -1.64062,-6.60937 -1.64063,-1.96875 -5.25,-1.96875 h -3.65625 v 27.375 z m 10.54688,-36.9375 h 4.125 q 3.14062,0 4.73437,-1.59375 1.59375,-1.64063 1.59375,-5.53125 v -6.60938 q 0,-3.60937 -1.26562,-5.25 -1.26563,-1.6875 -4.07813,-1.6875 h -5.10937 z"
         style="font-style:normal;font-variant:normal;font-weight:normal;font-stretch:normal;font-size:96px;font-family:'Bebas Neue';-inkscape-font-specification:'Bebas Neue'"
         id="path856" />
      <path
         d="m 308.25586,477.94922 10.73437,-67.21875 h 15.46875 l 10.73438,67.21875 h -10.64063 l -1.82812,-12.1875 h -12.98438 l -1.82812,12.1875 z m 12.84375,-21.32813 h 10.17187 l -5.0625,-33.98437 z"
         style="font-style:normal;font-variant:normal;font-weight:normal;font-stretch:normal;font-size:96px;font-family:'Bebas Neue';-inkscape-font-specification:'Bebas Neue'"
         id="path858" />
      <path
         d="m 346.92773,420.33984 v -9.60937 h 32.67188 v 9.60937 h -11.0625 v 57.60938 h -10.54688 v -57.60938 z"
         style="font-style:normal;font-variant:normal;font-weight:normal;font-stretch:normal;font-size:96px;font-family:'Bebas Neue';-inkscape-font-specification:'Bebas Neue'"
         id="path860" />
      <path
         d="m 384.14648,477.94922 v -67.21875 h 10.54688 v 67.21875 z"
         style="font-style:normal;font-variant:normal;font-weight:normal;font-stretch:normal;font-size:96px;font-family:'Bebas Neue';-inkscape-font-specification:'Bebas Neue'"
         id="path862" />
      <path
         d="m 399.56836,410.73047 h 10.64062 l 8.0625,54.84375 8.0625,-54.84375 h 9.70313 l -10.35938,67.21875 h -15.75 z"
         style="font-style:normal;font-variant:normal;font-weight:normal;font-stretch:normal;font-size:96px;font-family:'Bebas Neue';-inkscape-font-specification:'Bebas Neue'"
         id="path864" />
      <path
         d="m 440.86523,477.94922 v -67.21875 h 13.21875 l 10.875,40.26562 v -40.26562 h 9.42188 v 67.21875 h -10.875 l -13.125,-48.65625 v 48.65625 z"
         style="font-style:normal;font-variant:normal;font-weight:normal;font-stretch:normal;font-size:96px;font-family:'Bebas Neue';-inkscape-font-specification:'Bebas Neue'"
         id="path866" />
      <path
         d="m 481.74023,407.21484 6.51563,-10.6875 h 10.35937 l -9.79687,10.6875 z m 0.28125,70.73438 v -67.21875 h 10.54688 v 67.21875 z"
         style="font-style:normal;font-variant:normal;font-weight:normal;font-stretch:normal;font-size:96px;font-family:'Bebas Neue';-inkscape-font-specification:'Bebas Neue'"
         id="path868" />
    </g>
  </g>
</svg>
