<?xml version="1.0" encoding="UTF-8" standalone="no"?>
<!-- Created with Inkscape (http://www.inkscape.org/) -->

<svg
   xmlns:dc="http://purl.org/dc/elements/1.1/"
   xmlns:cc="http://creativecommons.org/ns#"
   xmlns:rdf="http://www.w3.org/1999/02/22-rdf-syntax-ns#"
   xmlns:svg="http://www.w3.org/2000/svg"
   xmlns="http://www.w3.org/2000/svg"
   xmlns:sodipodi="http://sodipodi.sourceforge.net/DTD/sodipodi-0.dtd"
   xmlns:inkscape="http://www.inkscape.org/namespaces/inkscape"
   version="1.1"
   width="556"
   height="556"
   viewBox="-0.327 -0.089 556 556"
   id="svg2"
   xml:space="preserve"
   inkscape:version="0.48.2 r9819"
   sodipodi:docname="logo_bez.svg"><metadata
   id="metadata9"><rdf:RDF><cc:Work
       rdf:about=""><dc:format>image/svg+xml</dc:format><dc:type
         rdf:resource="http://purl.org/dc/dcmitype/StillImage" /><dc:title></dc:title></cc:Work></rdf:RDF></metadata><sodipodi:namedview
   pagecolor="#ffffff"
   bordercolor="#666666"
   borderopacity="1"
   objecttolerance="10"
   gridtolerance="10"
   guidetolerance="10"
   inkscape:pageopacity="0"
   inkscape:pageshadow="2"
   inkscape:window-width="1680"
   inkscape:window-height="1026"
   id="namedview7"
   showgrid="false"
   fit-margin-left="23"
   fit-margin-top="23"
   fit-margin-right="23"
   fit-margin-bottom="23"
   inkscape:zoom="0.50971922"
   inkscape:cx="-106.48307"
   inkscape:cy="278.04236"
   inkscape:window-x="0"
   inkscape:window-y="24"
   inkscape:window-maximized="1"
   inkscape:current-layer="svg2" />
	<defs
   id="defs4" />
	<path
   inkscape:connector-curvature="0"
   d="m 277.673,520.79436 c -134.14103,0 -242.883368,-108.74232 -242.883368,-242.88335 0,-134.13987 108.742338,-242.883378 242.883368,-242.883378 134.14103,0 242.88337,108.743508 242.88337,242.883378 0,134.1422 -108.74234,242.88335 -242.88337,242.88335 z"
   id="path2827-0"
   style="fill:none;stroke:#ffffff;stroke-width:24.23326302;stroke-miterlimit:4;stroke-opacity:1;stroke-dasharray:none" /><path
   d="m 277.71535,498.36861 c -121.77901,0 -220.499991,-98.72097 -220.499991,-220.49998 0,-121.77795 98.720981,-220.499998 220.499991,-220.499998 121.77901,0 220.49999,98.722048 220.49999,220.499998 0,121.78007 -98.72098,220.49998 -220.49999,220.49998 z"
   id="path2827"
   style="fill:#ffffff;stroke:#000000;stroke-width:22;stroke-miterlimit:4;stroke-opacity:1;stroke-dasharray:none"
   inkscape:connector-curvature="0" /><path
   d="m 167.34736,156.50063 c 24.267,-7.07 126.586,6.86 105.678,105.837 -7.609,36.019 -49.357,53.566 -69.592,68.72 -47.901,35.873 -6.648,121.071 -6.648,121.071 0,0 -22.318,-66.267 27.382,-97.619 45.727,-28.846 203.373,-15.293 202.831,-104.266 -1.039,-170.464997 -266.661,-108.97 -259.651,-93.743 z"
   id="path8"
   inkscape:connector-curvature="0" /><rect
   width="20.208"
   height="250.63"
   x="187.74736"
   y="107.74763"
   id="rect10" />
</svg>